<?xml version="1.0" standalone="no"?><!DOCTYPE svg PUBLIC "-//W3C//DTD SVG 1.1//EN" "http://www.w3.org/Graphics/SVG/1.1/DTD/svg11.dtd"><svg t="1710582265105" class="icon" viewBox="0 0 1024 1024" version="1.1" xmlns="http://www.w3.org/2000/svg" p-id="1457" xmlns:xlink="http://www.w3.org/1999/xlink" width="200" height="200"><path d="M938.666667 578.133333a19.2 19.2 0 0 1-19.2 19.2h-46.933334a19.2 19.2 0 0 1-19.2-19.2v-181.333333a12.8 12.8 0 0 0-12.8-12.8H725.333333a85.333333 85.333333 0 0 1-85.333333-85.333333V140.8a12.8 12.8 0 0 0-12.8-12.8H183.466667a12.8 12.8 0 0 0-12.8 12.8v742.4a12.8 12.8 0 0 0 12.8 12.8h394.666666a19.2 19.2 0 0 1 19.2 19.2v46.933333a19.2 19.2 0 0 1-19.2 19.2H128a42.666667 42.666667 0 0 1-42.666667-42.666666V85.333333a42.666667 42.666667 0 0 1 42.666667-42.666666h596.821333c0.277333 0 0.512 0.213333 0.512 0.512 0 0.256 0.170667 0.448 0.426667 0.512a42.666667 42.666667 0 0 1 22.997333 13.76l179.541334 207.872A42.666667 42.666667 0 0 1 938.666667 293.205333V578.133333z m-341.333334 49.066667v-59.733333a12.8 12.8 0 0 0-12.8-12.8H268.8a12.8 12.8 0 0 0-12.8 12.8v59.733333a12.8 12.8 0 0 0 12.8 12.8h315.733333a12.8 12.8 0 0 0 12.8-12.8z m128-341.333333V195.285333a12.8 12.8 0 0 1 22.485334-8.384l78.229333 90.602667a12.8 12.8 0 0 1-9.685333 21.162667H738.133333a12.8 12.8 0 0 1-12.8-12.8zM268.8 213.333333a12.8 12.8 0 0 0-12.8 12.8v59.733334a12.8 12.8 0 0 0 12.8 12.8h230.4a12.8 12.8 0 0 0 12.8-12.8v-59.733334a12.8 12.8 0 0 0-12.8-12.8H268.8z m0 170.666667a12.8 12.8 0 0 0-12.8 12.8v59.733333a12.8 12.8 0 0 0 12.8 12.8h145.066667a12.8 12.8 0 0 0 12.8-12.8v-59.733333a12.8 12.8 0 0 0-12.8-12.8h-145.066667z m0 341.333333a12.8 12.8 0 0 0-12.8 12.8v59.733334a12.8 12.8 0 0 0 12.8 12.8h230.4a12.8 12.8 0 0 0 12.8-12.8v-59.733334a12.8 12.8 0 0 0-12.8-12.8H268.8z" fill="#000000" p-id="1458"></path><path d="M850.112 674.901333a19.2 19.2 0 0 1 27.157333 0l33.173334 33.194667a19.2 19.2 0 0 1 0 27.157333l-183.04 183.04a19.2 19.2 0 0 1-10.837334 5.418667l-38.72 5.546667a19.2 19.2 0 0 1-21.717333-21.76l5.525333-38.698667a19.2 19.2 0 0 1 5.418667-10.88l183.04-183.018667z" fill="#000000" p-id="1459"></path></svg>