<?xml version="1.0" standalone="no"?><!DOCTYPE svg PUBLIC "-//W3C//DTD SVG 1.1//EN" "http://www.w3.org/Graphics/SVG/1.1/DTD/svg11.dtd"><svg t="1710658161715" class="icon" viewBox="0 0 1194 1024" version="1.1" xmlns="http://www.w3.org/2000/svg" p-id="9288" xmlns:xlink="http://www.w3.org/1999/xlink" width="233.203125" height="200"><path d="M640.08448 0a42.666667 42.666667 0 0 1 7.68 84.650667L640.08448 85.333333H132.69248l327.082667 399.616a42.666667 42.666667 0 0 1 4.266666 47.872l-4.266666 6.229334L132.69248 938.666667H640.08448a42.666667 42.666667 0 0 1 41.984 34.986666L682.751147 981.333333a42.666667 42.666667 0 0 1-34.986667 41.984L640.08448 1024h-597.333333a42.666667 42.666667 0 0 1-37.034667-64l4.010667-5.717333L371.625813 512 9.727147 69.717333a42.666667 42.666667 0 0 1 26.026666-69.12L42.751147 0h597.333333z m220.672 629.674667L981.417813 750.336l120.661334-120.661333a42.666667 42.666667 0 0 1 60.330666 60.330666L1041.74848 810.666667l120.661333 120.661333a42.666667 42.666667 0 0 1-60.330666 60.330667L981.417813 870.997333l-120.661333 120.661334a42.666667 42.666667 0 0 1-60.330667-60.330667L921.087147 810.666667 800.425813 690.005333a42.666667 42.666667 0 0 1 60.330667-60.330666zM981.417813 0a42.666667 42.666667 0 0 1 42.666667 42.666667V170.666667h128a42.666667 42.666667 0 0 1 0 85.333333H1024.08448v128a42.666667 42.666667 0 0 1-85.333333 0V255.914667L810.751147 256a42.666667 42.666667 0 0 1 0-85.333333l128-0.085334V42.666667a42.666667 42.666667 0 0 1 42.666666-42.666667z" fill="#909399" p-id="9289"></path></svg>